<?xml version="1.0" encoding="UTF-8" standalone="no"?><!DOCTYPE svg PUBLIC "-//W3C//DTD SVG 1.1//EN" "http://www.w3.org/Graphics/SVG/1.1/DTD/svg11.dtd"><svg width="100%" height="100%" viewBox="0 0 720 720" version="1.1" xmlns="http://www.w3.org/2000/svg" xmlns:xlink="http://www.w3.org/1999/xlink" xml:space="preserve" xmlns:serif="http://www.serif.com/" style="fill-rule:evenodd;clip-rule:evenodd;stroke-linejoin:round;stroke-miterlimit:2;"><path d="M567.676,172.738c-3.573,-0.237 -7.27,-0.368 -11.021,-0.368c-59.049,0 -99.95,35.729 -99.95,99.106l-0,20.46l-34.202,0l-0,53.588l34.202,0l-0,190.591l70.412,-0l0,-190.591l46.121,0l0,-53.588l-46.121,0l0,-20.46c0,-23.017 13.474,-40.408 36.793,-40.408c9.47,-0 16.733,0.871 23.229,2.472c0.223,0.837 0.444,1.676 0.664,2.517c4.125,15.604 10.655,47.893 12.956,63.527c6.782,46.87 7.542,88.696 2.423,131.399c-3.372,28.394 -12.18,62.002 -22.908,87.877c-34.967,84.051 -106.55,140.333 -194.021,152.71c-42.185,5.968 -86.325,0.959 -126.859,-14.027c80.069,-5.278 127.287,-41.096 127.287,-121.427l0,-122.6c0,-80.757 -52.289,-127.711 -130.043,-127.711c-75.148,-0 -122.263,57.165 -122.263,132.823c0,72.063 47.632,116.465 117.597,116.465c24.888,-0 48.74,-7.145 64.295,-21.946l-0,21.435c-0,48.587 -24.37,69.044 -85.554,69.044c-24.93,0 -48.054,-1.758 -62.311,-4.399c-9.126,-9.164 -17.518,-18.99 -24.95,-29.274c-9.796,-13.586 -21.745,-35.478 -27.892,-51.041c-14.139,-36.026 -19.385,-74.945 -15.486,-115.54c6.779,-70.526 40.807,-144.915 98.644,-215.763c48.773,-59.686 111.434,-112.251 167.388,-140.373c27.248,-13.645 53.741,-20.457 74.899,-19.087c7.468,0.438 21.355,3.979 28.501,7.274c11.897,5.381 26.231,16.585 37.352,29.115c22.776,25.734 43.732,63.23 60.818,108.2Zm-305.334,307.745c-35.258,0 -57.554,-24.026 -57.554,-70.034c-0,-46.008 22.296,-70.035 57.554,-70.035c35.258,0 57.554,24.027 57.554,70.035c0,46.008 -22.296,70.034 -57.554,70.034Z" style="fill:#cb0f88;"/></svg>